<?xml version="1.0" encoding="UTF-8"?>
<svg xmlns="http://www.w3.org/2000/svg" version="1.1" xmlns:cc="http://creativecommons.org/ns#" xmlns:dc="http://purl.org/dc/elements/1.1/" xmlns:inkscape="http://www.inkscape.org/namespaces/inkscape" xmlns:rdf="http://www.w3.org/1999/02/22-rdf-syntax-ns#" xmlns:sodipodi="http://sodipodi.sourceforge.net/DTD/sodipodi-0.dtd" xmlns:svg="http://www.w3.org/2000/svg" viewBox="0 0 1000 367.82">
  <!-- Generator: Adobe Illustrator 30.1.0, SVG Export Plug-In . SVG Version: 2.1.1 Build 136)  -->
  <defs>
    <style>
      .st0 {
        fill: #4c4c4c;
      }

      .st1 {
        fill: gray;
      }
    </style>
  </defs>
  <g id="Logo" inkscape:version="1.0.2 (e86c870879, 2021-01-15)" sodipodi:docname="Unity_2021.svg">
    <sodipodi:namedview id="namedview15" bordercolor="#666666" borderopacity="1" gridtolerance="10" guidetolerance="10" inkscape:current-layer="Logo" inkscape:cx="481.73464" inkscape:cy="72.632202" inkscape:pageopacity="0" inkscape:pageshadow="2" inkscape:window-height="705" inkscape:window-maximized="1" inkscape:window-width="1366" inkscape:window-x="-8" inkscape:window-y="-8" inkscape:zoom="0.5" objecttolerance="10" pagecolor="#ffffff" showgrid="false"/>
    <g id="g849">
      <path id="path4" class="st1" d="M411.49,200v-104.21h43.68v105.75c0,17.62,9.2,29.12,30.65,29.12,19.92,0,29.89-12.26,29.89-29.89v-104.98h43.68v104.21c0,40.61-24.52,65.13-73.56,65.13-49.81.77-74.33-23.75-74.33-65.13ZM579.31,135.63h39.08v17.62h.77c9.2-13.79,21.46-20.69,39.08-20.69,27.59,0,43.68,19.92,43.68,48.28v81.99h-40.61v-74.33c0-13.03-6.9-22.22-19.92-22.22s-22.22,11.49-22.22,26.82v69.73h-40.61v-127.2h.77ZM722.61,85.82h40.61v32.95h-40.61v-32.95ZM722.61,135.63h40.61v126.44h-40.61v-126.44ZM794.64,229.12v-60.54h-16.86v-32.95h16.86v-39.85h39.08v39.85h22.99v32.95h-22.99v52.11c0,9.96,5.36,12.26,13.79,12.26h9.2v29.12c-3.83.77-11.49,2.3-22.22,2.3-22.99,0-39.85-7.66-39.85-35.25ZM881.99,272.8h13.79c11.49,0,16.86-4.6,16.86-13.03,0-5.36-2.3-13.03-7.66-26.05l-37.55-97.32h42.15l16.86,53.64c3.83,12.26,7.66,29.12,7.66,29.12h.77s3.83-16.86,7.66-29.12l16.86-53.64h40.61l-43.68,127.97c-9.96,29.89-22.22,39.85-47.51,39.85h-26.05l-.77-31.42Z"/>
      <path id="path6" class="st0" d="M325.67,257.47V85.82L177.01,0v65.9l58.24,33.72c2.3,1.53,2.3,4.6,0,5.36l-68.97,39.85c-2.3,1.53-4.6.77-6.13,0l-68.97-39.85c-2.3-.77-2.3-4.6,0-5.36l58.24-33.72V0L0,85.82v171.65-.77.77l56.7-32.95v-67.43c0-2.3,3.07-3.83,4.6-3.07l68.97,39.85c2.3,1.53,3.07,3.07,3.07,5.36v79.69c0,2.3-3.07,3.83-4.6,3.07l-58.24-33.72-56.7,32.95,148.66,86.59,148.66-85.82-56.7-32.95-58.24,33.72c-2.3,1.53-4.6,0-4.6-3.07v-79.69c0-2.3,1.53-4.6,3.07-5.36l68.97-39.85c2.3-1.53,4.6,0,4.6,3.07v67.43l57.47,32.18Z"/>
      <path id="path8" d="M162.45,367.82l148.66-85.82-56.7-32.95-58.24,33.72c-2.3,1.53-4.6,0-4.6-3.07v-79.69c0-2.3,1.53-4.6,3.07-5.36l68.97-39.85c2.3-1.53,4.6,0,4.6,3.07v67.43l56.7,32.95V85.82l-162.45,94.25v187.74Z"/>
      <path id="path10" class="st1" d="M177.01,0v65.9l58.24,33.72c2.3,1.53,2.3,4.6,0,5.36l-68.97,39.85c-2.3,1.53-4.6.77-6.13,0l-68.97-39.85c-2.3-.77-2.3-4.6,0-5.36l58.24-33.72V0L0,85.82l162.45,94.25,162.45-94.25L177.01,0Z"/>
      <path id="path12" class="st0" d="M129.5,282.76l-58.24-33.72-56.7,32.95,148.66,85.82v-187.74L0,85.82v171.65-.77.77l56.7-32.95v-67.43c0-2.3,3.07-3.83,4.6-3.07l68.97,39.85c2.3,1.53,3.07,3.07,3.07,5.36v79.69c.77,3.07-1.53,5.36-3.83,3.83Z"/>
    </g>
  </g>
</svg>